<svg xmlns="http://www.w3.org/2000/svg" xmlns:xlink="http://www.w3.org/1999/xlink" width="21.232" height="20" viewBox="0 0 21.232 20">
  <defs>
    <clipPath id="clip-path">
      <rect id="사각형_3515" data-name="사각형 3515" width="21.231" height="20" fill="none"/>
    </clipPath>
  </defs>
  <g id="file_word" transform="translate(0.001)">
    <g id="그룹_1855" data-name="그룹 1855" transform="translate(-0.001)" clip-path="url(#clip-path)">
      <path id="패스_8717" data-name="패스 8717" d="M239.57,64.954H231V50.144h8.57a.7.7,0,0,1,.7.7V64.255a.7.7,0,0,1-.7.7" transform="translate(-219.038 -47.547)" fill="#eceff1"/>
      <path id="패스_8718" data-name="패스 8718" d="M226.008,104.939h-6.534a.647.647,0,1,1,0-1.295h6.534a.647.647,0,1,1,0,1.295" transform="translate(-207.495 -98.277)" fill="#1976d2"/>
      <path id="패스_8719" data-name="패스 8719" d="M226.008,155.939h-6.534a.647.647,0,1,1,0-1.295h6.534a.647.647,0,0,1,0,1.295" transform="translate(-207.495 -146.636)" fill="#1976d2"/>
      <path id="패스_8720" data-name="패스 8720" d="M226.008,206.939h-6.534a.647.647,0,1,1,0-1.295h6.534a.647.647,0,1,1,0,1.295" transform="translate(-207.495 -194.995)" fill="#1976d2"/>
      <path id="패스_8721" data-name="패스 8721" d="M226.008,257.939h-6.534a.647.647,0,1,1,0-1.295h6.534a.647.647,0,1,1,0,1.295" transform="translate(-207.495 -243.354)" fill="#1976d2"/>
      <path id="패스_8722" data-name="패스 8722" d="M11.116,19.986.575,17.932a.711.711,0,0,1-.575-.7V2.718a.711.711,0,0,1,.578-.7L11.119.012a.711.711,0,0,1,.844.7V19.288a.711.711,0,0,1-.846.7" transform="translate(0 0.001)" fill="#1565c0"/>
      <path id="패스_8723" data-name="패스 8723" d="M49.567,124.444a.725.725,0,0,1-.674-.458l-1.412-3.571-1.355,3.562a.725.725,0,0,1-1.394-.15l-.725-4.807a.725.725,0,1,1,1.434-.216l.313,2.075,1.037-2.726a.725.725,0,0,1,1.352-.009l1,2.539.293-2.889a.725.725,0,0,1,1.443.146l-.593,5.852a.726.726,0,0,1-.722.652" transform="translate(-41.72 -111.076)" fill="#fafafa"/>
    </g>
  </g>
</svg>
