<svg id="file_pdf" xmlns="http://www.w3.org/2000/svg" xmlns:xlink="http://www.w3.org/1999/xlink" width="15.004" height="20" viewBox="0 0 15.004 20">
  <defs>
    <clipPath id="clip-path">
      <rect id="사각형_3516" data-name="사각형 3516" width="15.004" height="20" fill="none"/>
    </clipPath>
  </defs>
  <g id="그룹_1857" data-name="그룹 1857" clip-path="url(#clip-path)">
    <path id="패스_8724" data-name="패스 8724" d="M15,5.829,9.271,0H2.7A2.7,2.7,0,0,0,0,2.7V17.3A2.7,2.7,0,0,0,2.7,20h9.6A2.7,2.7,0,0,0,15,17.3V5.833h0Z" fill="#e5252a"/>
    <path id="패스_8725" data-name="패스 8725" d="M183.729,5.833v0L178,0V5.833Z" transform="translate(-168.729)" fill="#ed676a"/>
    <path id="패스_8726" data-name="패스 8726" d="M55.488,217.211h1.526a1.484,1.484,0,0,1,.7.157,1.13,1.13,0,0,1,.466.442,1.292,1.292,0,0,1,.165.659,1.273,1.273,0,0,1-.168.663,1.109,1.109,0,0,1-.476.435,1.6,1.6,0,0,1-.713.151h-.555v1.08h-.941Zm1.308,1.773a.594.594,0,0,0,.414-.14.479.479,0,0,0,.146-.375.464.464,0,0,0-.146-.369.606.606,0,0,0-.414-.136h-.367v1.021Z" transform="translate(-52.598 -205.898)" fill="#fff"/>
    <path id="패스_8727" data-name="패스 8727" d="M117.408,220.8v-3.587h1.352a2.007,2.007,0,0,1,.954.214,1.48,1.48,0,0,1,.622.619,2.225,2.225,0,0,1,0,1.918,1.483,1.483,0,0,1-.619.619,1.979,1.979,0,0,1-.947.215Zm1.328-.8a1.089,1.089,0,0,0,.478-.093.611.611,0,0,0,.29-.311,1.785,1.785,0,0,0,0-1.177.608.608,0,0,0-.295-.31,1.168,1.168,0,0,0-.5-.092h-.362V220Z" transform="translate(-111.293 -205.898)" fill="#fff"/>
    <path id="패스_8728" data-name="패스 8728" d="M186.652,217.211h2.5v.763h-1.561v.649H189v.763h-1.4V220.8h-.941Z" transform="translate(-176.931 -205.898)" fill="#fff"/>
  </g>
</svg>
