<svg id="file_zip" xmlns="http://www.w3.org/2000/svg" xmlns:xlink="http://www.w3.org/1999/xlink" width="15.004" height="20" viewBox="0 0 15.004 20">
  <defs>
    <clipPath id="clip-path">
      <rect id="사각형_3523" data-name="사각형 3523" width="15.004" height="20" fill="none"/>
    </clipPath>
  </defs>
  <g id="그룹_1865" data-name="그룹 1865" clip-path="url(#clip-path)">
    <path id="패스_8745" data-name="패스 8745" d="M15,5.829,9.271,0H2.7A2.7,2.7,0,0,0,0,2.7V17.3A2.7,2.7,0,0,0,2.7,20h9.6A2.7,2.7,0,0,0,15,17.3V5.833h0Z" fill="#a2a2a2"/>
    <path id="패스_8746" data-name="패스 8746" d="M70,220.056l1.717-2.309H70v-.766H72.92v.527L71.2,219.817h1.712v.766H70Z" transform="translate(-66.353 -205.679)" fill="#fff"/>
    <rect id="사각형_3522" data-name="사각형 3522" width="0.945" height="3.602" transform="translate(7.059 11.301)" fill="#fff"/>
    <path id="패스_8747" data-name="패스 8747" d="M163.051,216.981h1.533a1.491,1.491,0,0,1,.7.158,1.135,1.135,0,0,1,.468.444,1.3,1.3,0,0,1,.165.662,1.28,1.28,0,0,1-.169.666,1.114,1.114,0,0,1-.478.437,1.605,1.605,0,0,1-.717.152H164v1.085h-.945Zm1.314,1.781a.6.6,0,0,0,.416-.141.481.481,0,0,0,.147-.377.466.466,0,0,0-.147-.371.609.609,0,0,0-.416-.137H164v1.025Z" transform="translate(-154.559 -205.68)" fill="#fff"/>
    <path id="패스_8748" data-name="패스 8748" d="M183.729,5.833v0L178,0V5.833Z" transform="translate(-168.729)" fill="#c2c2c2"/>
  </g>
</svg>
