<svg id="file_excel" xmlns="http://www.w3.org/2000/svg" width="21.333" height="20" viewBox="0 0 21.333 20">
  <path id="패스_8685" data-name="패스 8685" d="M18,16.667H8.667A.667.667,0,0,1,8,16V2.667A.667.667,0,0,1,8.667,2H18a.667.667,0,0,1,.667.667V16A.667.667,0,0,1,18,16.667Z" transform="translate(2.667 0.667)" fill="#eceff1"/>
  <path id="패스_8686" data-name="패스 8686" d="M11.333,5.333H8.667A.667.667,0,0,1,8.667,4h2.667a.667.667,0,0,1,0,1.333Zm0,2.667H8.667a.667.667,0,0,1,0-1.333h2.667a.667.667,0,0,1,0,1.333Zm0,2.667H8.667a.667.667,0,0,1,0-1.333h2.667a.667.667,0,0,1,0,1.333Zm0,2.667H8.667a.667.667,0,0,1,0-1.333h2.667a.667.667,0,0,1,0,1.333Zm4-8H14A.667.667,0,0,1,14,4h1.333a.667.667,0,0,1,0,1.333Zm0,2.667H14a.667.667,0,0,1,0-1.333h1.333a.667.667,0,0,1,0,1.333Zm0,2.667H14a.667.667,0,0,1,0-1.333h1.333a.667.667,0,0,1,0,1.333Zm0,2.667H14A.667.667,0,0,1,14,12h1.333a.667.667,0,0,1,0,1.333Z" transform="translate(2.667 1.334)" fill="#388e3c"/>
  <path id="패스_8687" data-name="패스 8687" d="M11.759.153a.655.655,0,0,0-.548-.141l-10.667,2A.667.667,0,0,0,0,2.667V17.333a.667.667,0,0,0,.544.655l10.667,2A.667.667,0,0,0,12,19.333V.667a.667.667,0,0,0-.241-.513Z" transform="translate(0 0)" fill="#2e7d32"/>
  <path id="패스_8688" data-name="패스 8688" d="M8.339,10.728l-2.1-2.409L8.371,5.577a.667.667,0,0,0-1.052-.82L5.336,7.3,3.672,5.395a.667.667,0,1,0-1,.877L4.5,8.367l-1.86,2.391a.667.667,0,1,0,1.053.819L5.4,9.389,7.336,11.6a.667.667,0,1,0,1-.876Z" transform="translate(0.829 1.5)" fill="#fafafa"/>
</svg>
